<?xml version="1.0" ?><svg data-name="Layer 1" id="Layer_1" viewBox="0 0 64 64" xmlns="http://www.w3.org/2000/svg"><title/><desc/><polygon points="32.06 22.02 42.06 14.7 40.72 27.02 52.06 32.02 40.72 37.02 42.06 49.34 32.06 42.02 22.06 49.34 23.4 37.02 12.06 32.02 23.4 27.02 22.06 14.7 32.06 22.02" style="fill:#a8dba8"/><polygon points="32.06 37.06 27.02 40.75 27.69 34.54 21.98 32.02 27.69 29.5 27.02 23.28 32.06 26.98 37.1 23.28 36.43 29.5 42.15 32.02 36.43 34.54 37.1 40.75 32.06 37.06" style="fill:#79bd9a"/><circle cx="14.06" cy="7.02" r="2" style="fill:#a8dba8"/><circle cx="59.06" cy="7.02" r="2" style="fill:#a8dba8"/><circle cx="5.06" cy="57.02" r="2" style="fill:#a8dba8"/><circle cx="50.06" cy="57.02" r="2" style="fill:#a8dba8"/><circle cx="18.06" cy="56.02" r="2" style="fill:#a8dba8"/><circle cx="46.06" cy="8.02" r="2" style="fill:#a8dba8"/><path d="M59.42,22.81a.75.75,0,0,0,.26,0,1,1,0,0,0,.26-2l-5.87-1.57,1.57-5.86a1,1,0,1,0-1.93-.52L52,19.36l-3.82,2.2,1.29-6.92a1,1,0,1,0-2-.37l-1.61,8.61-4,2.29,1.13-10.36a1,1,0,0,0-.5-1,1,1,0,0,0-1.09.06l-8.41,6.16V15.48l6.65-5.7a1,1,0,0,0-1.3-1.52l-5.35,4.58V8.43l4.71-4.7a1,1,0,1,0-1.42-1.42L32.06,6.6,27.77,2.31a1,1,0,0,0-1.42,1.42l4.71,4.7v4.41L25.71,8.26a1,1,0,0,0-1.3,1.52l6.65,5.7v4.57l-8.41-6.16a1,1,0,0,0-1.09-.06,1,1,0,0,0-.49,1l1.12,10.36-4-2.29-1.61-8.61a1,1,0,0,0-2,.37L16,21.56l-3.82-2.2-1.73-6.43a1,1,0,1,0-1.93.52l1.57,5.86L4.19,20.88a1,1,0,0,0,.26,2,.82.82,0,0,0,.26,0l6.43-1.72L15,23.3,8.31,25.64a1,1,0,0,0,.33,1.94A1,1,0,0,0,9,27.52l8.26-2.91,4,2.29-9.53,4.2a1,1,0,0,0,0,1.83l9.53,4.21-4,2.28L9,36.51a1,1,0,1,0-.67,1.89L15,40.74,11.14,43,4.71,41.22a1,1,0,0,0-1.23.71,1,1,0,0,0,.71,1.22l5.86,1.58L8.48,50.59a1,1,0,0,0,.71,1.22.75.75,0,0,0,.26,0,1,1,0,0,0,1-.74l1.73-6.43L16,42.47l-1.3,6.93a1,1,0,0,0,.8,1.16.55.55,0,0,0,.18,0,1,1,0,0,0,1-.82l1.61-8.61,4-2.28L21.07,49.23a1,1,0,0,0,.49,1,1,1,0,0,0,1.09-.05L31.06,44v4.57l-6.65,5.7a1,1,0,0,0,1.3,1.52l5.35-4.59V55.6l-4.71,4.71a1,1,0,0,0,1.42,1.42l4.29-4.3,4.29,4.3a1,1,0,0,0,.71.29,1,1,0,0,0,.71-.29,1,1,0,0,0,0-1.42L33.06,55.6V51.19l5.35,4.59a1,1,0,0,0,1.3-1.52l-6.65-5.7V44l8.41,6.16a1.06,1.06,0,0,0,.59.19,1,1,0,0,0,.5-.14,1,1,0,0,0,.5-1L41.93,38.87l4,2.28,1.61,8.61a1,1,0,0,0,1,.82.55.55,0,0,0,.18,0,1,1,0,0,0,.8-1.16l-1.29-6.93L52,44.68l1.72,6.43a1,1,0,0,0,1,.74.82.82,0,0,0,.26,0,1,1,0,0,0,.7-1.22l-1.57-5.86,5.87-1.58a1,1,0,0,0,.7-1.22,1,1,0,0,0-1.22-.71L53,43l-3.82-2.21,6.64-2.34a1,1,0,0,0-.66-1.89l-8.26,2.91-4-2.28,9.53-4.21a1,1,0,0,0,0-1.83l-9.53-4.2,4-2.29,8.26,2.91a1,1,0,0,0,.33.06,1,1,0,0,0,.33-1.94L49.17,23.3,53,21.09Zm-18.6-6-1,9.57-2.14,1.24.46-4.26a1,1,0,0,0-.5-1,1,1,0,0,0-1.09.06L33.06,25V22.53Zm-5,21.77-2.8-2.06v-2.8l2.43,1.4Zm-7.6-13.18,2.8,2.05v2.81l-2.43-1.41Zm7.23,3.45-2.43,1.41V27.48l2.8-2.05ZM30.06,32l-2.43,1.4L24.45,32l3.18-1.4Zm-1.43,3.13,2.43-1.4v2.8l-2.8,2.06ZM34.06,32l2.43-1.4L39.67,32l-3.18,1.4ZM23.3,16.84l7.76,5.69V25l-3.45-2.52a1,1,0,0,0-1.09-.06,1,1,0,0,0-.5,1l.47,4.26-2.15-1.24ZM14.54,32l8.8-3.88,2.15,1.24L21.57,31.1a1,1,0,0,0,0,1.83l3.92,1.73L23.34,35.9ZM23.3,47.19l1-9.56,2.15-1.24L26,40.64a1,1,0,0,0,.5,1,1,1,0,0,0,1.09-.06L31.06,39v2.48Zm17.52,0-7.76-5.68V39l3.45,2.53a1,1,0,0,0,.59.19,1,1,0,0,0,.5-.13,1,1,0,0,0,.5-1l-.46-4.25,2.14,1.24ZM49.58,32l-8.8,3.88-2.14-1.24,3.91-1.73a1,1,0,0,0,0-1.83l-3.91-1.72,2.14-1.24Z" style="fill:#3b8686"/><path d="M14.06,10a3,3,0,1,0-3-3A3,3,0,0,0,14.06,10Zm0-4a1,1,0,1,1-1,1A1,1,0,0,1,14.06,6Z" style="fill:#3b8686"/><path d="M59.06,4a3,3,0,1,0,3,3A3,3,0,0,0,59.06,4Zm0,4a1,1,0,1,1,1-1A1,1,0,0,1,59.06,8Z" style="fill:#3b8686"/><path d="M5.06,54a3,3,0,1,0,3,3A3,3,0,0,0,5.06,54Zm0,4a1,1,0,1,1,1-1A1,1,0,0,1,5.06,58Z" style="fill:#3b8686"/><path d="M50.06,54a3,3,0,1,0,3,3A3,3,0,0,0,50.06,54Zm0,4a1,1,0,1,1,1-1A1,1,0,0,1,50.06,58Z" style="fill:#3b8686"/><path d="M18.06,53a3,3,0,1,0,3,3A3,3,0,0,0,18.06,53Zm0,4a1,1,0,1,1,1-1A1,1,0,0,1,18.06,57Z" style="fill:#3b8686"/><path d="M46.06,11a3,3,0,1,0-3-3A3,3,0,0,0,46.06,11Zm0-4a1,1,0,1,1-1,1A1,1,0,0,1,46.06,7Z" style="fill:#3b8686"/></svg>